<svg width="1284" height="975" viewBox="0 0 1284 975" fill="none" xmlns="http://www.w3.org/2000/svg">
<g filter="url(#filter0_f_454_31)">
<path fill-rule="evenodd" clip-rule="evenodd" d="M503.338 200.106C602.561 196.463 672.563 287.561 723.496 357.618C763.641 412.838 703.524 495.883 754.077 544.995C838.569 627.079 1075.15 600.378 1083.79 707.645C1091.5 803.295 883.059 793.545 777.385 834.177C716.65 857.53 661.809 890.763 595.01 895.585C535.353 899.892 483.191 869.47 424.509 859.651C358.541 848.614 282.381 868.104 229.043 834.354C173.847 799.428 153.737 738.201 143.159 681.624C132.513 624.689 142.713 567.033 169.083 513.659C196.272 458.627 247.845 418.012 295.474 373.334C361.843 311.075 402.706 203.801 503.338 200.106Z" fill="url(#paint0_linear_454_31)"/>
</g>
<defs>
<filter id="filter0_f_454_31" x="-61" y="0" width="1345" height="1096" filterUnits="userSpaceOnUse" color-interpolation-filters="sRGB">
<feFlood flood-opacity="0" result="BackgroundImageFix"/>
<feBlend mode="normal" in="SourceGraphic" in2="BackgroundImageFix" result="shape"/>
<feGaussianBlur stdDeviation="100" result="effect1_foregroundBlur_454_31"/>
</filter>
<linearGradient id="paint0_linear_454_31" x1="400.566" y1="492.665" x2="801.337" y2="278.376" gradientUnits="userSpaceOnUse">
<stop stop-color="#0067E3"/>
<stop offset="1" stop-color="#D0B8FF"/>
</linearGradient>
</defs>
</svg>
